<svg class="main-svg" xmlns="http://www.w3.org/2000/svg" xmlns:xlink="http://www.w3.org/1999/xlink" width="350" height="350" style="" viewBox="0 0 350 350"><rect x="0" y="0" width="350" height="350" style="fill: rgb(0, 0, 0); fill-opacity: 0;"/><defs id="defs-7406eb"><g class="clips"/><g class="gradients"/><g class="patterns"/></defs><g class="bglayer"/><g class="layer-below"><g class="imagelayer"/><g class="shapelayer"/></g><g class="cartesianlayer"/><g class="polarlayer"/><g class="smithlayer"/><g class="ternarylayer"/><g class="geolayer"/><g class="funnelarealayer"/><g class="pielayer"><g class="trace" stroke-linejoin="round" style="opacity: 1;"><g class="slice"><path class="surface" d="M116.96465787639013,135.860517829236a70,70 0 1 0 58.03534212360987,-30.860517829236002l0,-105a175,175 0 1 1 -145.08835530902468,77.15129457309Z" style="pointer-events: all; stroke-width: 0; fill: rgb(139, 69, 19); fill-opacity: 1; stroke: rgb(68, 68, 68); stroke-opacity: 1;"/></g><g class="slice"><path class="surface" d="M175,105a70,70 0 0 0 -57.87429036388244,30.622766541096055l-86.81143554582366,-59.06585018835592a175,175 0 0 1 144.6857259097061,-76.55691635274013Z" style="pointer-events: all; stroke-width: 0; fill: rgb(70, 130, 180); fill-opacity: 1; stroke: rgb(68, 68, 68); stroke-opacity: 1;"/></g><g class="slice"><path class="surface" d="M117.12570963611756,135.62276654109604a70,70 0 0 0 -0.1610517597274452,0.23775128813995253l-87.05301318541483,-58.70922325614599a175,175 0 0 1 0.40262939931861297,-0.5943782203498813Z" style="pointer-events: all; stroke-width: 0; fill: rgb(208, 32, 144); fill-opacity: 1; stroke: rgb(68, 68, 68); stroke-opacity: 1;"/></g></g></g><g class="iciclelayer"/><g class="treemaplayer"/><g class="sunburstlayer"/><g class="glimages"/><defs id="topdefs-7406eb"><g class="clips"/></defs><g class="layer-above"><g class="imagelayer"/><g class="shapelayer"/></g><g class="infolayer"><g class="g-gtitle"/><g class="annotation" data-index="0" style="opacity: 1;"><g class="annotation-text-g" transform="rotate(0,175,175)"><g class="cursor-pointer" transform="translate(59,143)"><rect class="bg" x="0.5" y="0.5" width="232" height="63" style="stroke-width: 1px; stroke: rgb(0, 0, 0); stroke-opacity: 0; fill: rgb(0, 0, 0); fill-opacity: 0;"/><text class="annotation-text" text-anchor="middle" x="116.734375" y="52" style="font-family: 'Open Sans', verdana, arial, sans-serif; font-size: 50px; fill: rgb(42, 63, 95); fill-opacity: 1; white-space: pre;">Dutchess</text></g></g></g></g></svg>