<svg class="main-svg" xmlns="http://www.w3.org/2000/svg" xmlns:xlink="http://www.w3.org/1999/xlink" width="350" height="350" viewBox="0 0 350 350" style=""><rect x="0" y="0" width="350" height="350" style="fill: rgb(0, 0, 0); fill-opacity: 0;"/><defs id="defs-eeaef5"><g class="clips"/><g class="gradients"/><g class="patterns"/></defs><g class="bglayer"/><g class="layer-below"><g class="imagelayer"/><g class="shapelayer"/></g><g class="cartesianlayer"/><g class="polarlayer"/><g class="smithlayer"/><g class="ternarylayer"/><g class="geolayer"/><g class="funnelarealayer"/><g class="pielayer"><g class="trace" stroke-linejoin="round" style="opacity: 1;"><g class="slice"><path class="surface" d="M106.35257339403005,161.30581070753112a70,70 0 1 0 68.64742660596995,-56.30581070753112l0,-105a175,175 0 1 1 -171.61856651492488,140.7645267688278Z" style="pointer-events: all; stroke-width: 0; fill: rgb(70, 130, 180); fill-opacity: 1; stroke: rgb(68, 68, 68); stroke-opacity: 1;"/></g><g class="slice"><path class="surface" d="M175,105a70,70 0 0 0 -60.90419094881275,35.4937755633776l-91.35628642321912,-51.7593366549336a175,175 0 0 1 152.26047737203186,-88.734438908444Z" style="pointer-events: all; stroke-width: 0; fill: rgb(139, 69, 19); fill-opacity: 1; stroke: rgb(68, 68, 68); stroke-opacity: 1;"/></g><g class="slice"><path class="surface" d="M114.09580905118725,140.4937755633776a70,70 0 0 0 -7.743235657157209,20.812035144153548l-102.97113990895492,-20.541283938703277a175,175 0 0 1 19.35808914289302,-52.030087860383865Z" style="pointer-events: all; stroke-width: 0; fill: rgb(208, 32, 144); fill-opacity: 1; stroke: rgb(68, 68, 68); stroke-opacity: 1;"/></g></g></g><g class="iciclelayer"/><g class="treemaplayer"/><g class="sunburstlayer"/><g class="glimages"/><defs id="topdefs-eeaef5"><g class="clips"/></defs><g class="layer-above"><g class="imagelayer"/><g class="shapelayer"/></g><g class="infolayer"><g class="g-gtitle"/><g class="annotation" data-index="0" style="opacity: 1;"><g class="annotation-text-g" transform="rotate(0,175,175)"><g class="cursor-pointer" transform="translate(125,143)"><rect class="bg" x="0.5" y="0.5" width="99" height="63" style="stroke-width: 1px; stroke: rgb(0, 0, 0); stroke-opacity: 0; fill: rgb(0, 0, 0); fill-opacity: 0;"/><text class="annotation-text" text-anchor="middle" x="50.234375" y="52" style="font-family: 'Open Sans', verdana, arial, sans-serif; font-size: 50px; fill: rgb(42, 63, 95); fill-opacity: 1; white-space: pre;">Erie</text></g></g></g></g></svg>