<svg class="main-svg" xmlns="http://www.w3.org/2000/svg" xmlns:xlink="http://www.w3.org/1999/xlink" width="350" height="350" style="" viewBox="0 0 350 350"><rect x="0" y="0" width="350" height="350" style="fill: rgb(0, 0, 0); fill-opacity: 0;"/><defs id="defs-86794f"><g class="clips"/><g class="gradients"/><g class="patterns"/></defs><g class="bglayer"/><g class="layer-below"><g class="imagelayer"/><g class="shapelayer"/></g><g class="cartesianlayer"/><g class="polarlayer"/><g class="smithlayer"/><g class="ternarylayer"/><g class="geolayer"/><g class="funnelarealayer"/><g class="pielayer"><g class="trace" stroke-linejoin="round" style="opacity: 1;"><g class="slice"><path class="surface" d="M106.94507349682868,158.61320718847182a70,70 0 1 0 68.05492650317132,-53.613207188471826l0,-105a175,175 0 1 1 -170.1373162579283,134.03301797117956Z" style="pointer-events: all; stroke-width: 0; fill: rgb(70, 130, 180); fill-opacity: 1; stroke: rgb(68, 68, 68); stroke-opacity: 1;"/></g><g class="slice"><path class="surface" d="M175,105a70,70 0 0 0 -53.61606566093706,24.996472326693254l-80.42409849140559,-67.50529150996012a175,175 0 0 1 134.04016415234264,-62.491180816733134Z" style="pointer-events: all; stroke-width: 0; fill: rgb(139, 69, 19); fill-opacity: 1; stroke: rgb(68, 68, 68); stroke-opacity: 1;"/></g><g class="slice"><path class="surface" d="M121.38393433906293,129.99647232669327a70,70 0 0 0 -14.438860842234238,28.616734861778514l-102.08238975475693,-24.580189217292347a175,175 0 0 1 36.09715210558559,-71.54183715444628Z" style="pointer-events: all; stroke-width: 0; fill: rgb(208, 32, 144); fill-opacity: 1; stroke: rgb(68, 68, 68); stroke-opacity: 1;"/></g></g></g><g class="iciclelayer"/><g class="treemaplayer"/><g class="sunburstlayer"/><g class="glimages"/><defs id="topdefs-86794f"><g class="clips"/></defs><g class="layer-above"><g class="imagelayer"/><g class="shapelayer"/></g><g class="infolayer"><g class="g-gtitle"/><g class="annotation" data-index="0" style="opacity: 1;"><g class="annotation-text-g" transform="rotate(0,175,175)"><g class="cursor-pointer" transform="translate(80,143)"><rect class="bg" x="0.5" y="0.5" width="189" height="63" style="stroke-width: 1px; stroke: rgb(0, 0, 0); stroke-opacity: 0; fill: rgb(0, 0, 0); fill-opacity: 0;"/><text class="annotation-text" text-anchor="middle" x="94.8125" y="52" style="font-family: 'Open Sans', verdana, arial, sans-serif; font-size: 50px; fill: rgb(42, 63, 95); fill-opacity: 1; white-space: pre;">Monroe</text></g></g></g></g></svg>