<svg class="main-svg" xmlns="http://www.w3.org/2000/svg" xmlns:xlink="http://www.w3.org/1999/xlink" width="350" height="350" style="" viewBox="0 0 350 350"><rect x="0" y="0" width="350" height="350" style="fill: rgb(0, 0, 0); fill-opacity: 0;"/><defs id="defs-4df2fc"><g class="clips"/><g class="gradients"/><g class="patterns"/></defs><g class="bglayer"/><g class="layer-below"><g class="imagelayer"/><g class="shapelayer"/></g><g class="cartesianlayer"/><g class="polarlayer"/><g class="smithlayer"/><g class="ternarylayer"/><g class="geolayer"/><g class="funnelarealayer"/><g class="pielayer"><g class="trace" stroke-linejoin="round" style="opacity: 1;"><g class="slice"><path class="surface" d="M105.00050323688824,174.73457032738034a70,70 0 1 0 69.99949676311176,-69.73457032738034l0,-105a175,175 0 1 1 -174.9987419077794,174.33642581845083Z" style="pointer-events: all; stroke-width: 0; fill: rgb(70, 130, 180); fill-opacity: 1; stroke: rgb(68, 68, 68); stroke-opacity: 1;"/></g><g class="slice"><path class="surface" d="M175,105a70,70 0 0 0 -57.33473844096689,29.84121804753143l-86.00210766145032,-60.23817292870285a175,175 0 0 1 143.3368461024172,-74.60304511882858Z" style="pointer-events: all; stroke-width: 0; fill: rgb(208, 32, 144); fill-opacity: 1; stroke: rgb(68, 68, 68); stroke-opacity: 1;"/></g><g class="slice"><path class="surface" d="M117.66526155903311,134.8412180475314a70,70 0 0 0 -12.664758322144872,39.89335227984887l-104.99924514466763,-0.3981445089295505a175,175 0 0 1 31.661895805362178,-99.73338069962217Z" style="pointer-events: all; stroke-width: 0; fill: rgb(139, 69, 19); fill-opacity: 1; stroke: rgb(68, 68, 68); stroke-opacity: 1;"/></g></g></g><g class="iciclelayer"/><g class="treemaplayer"/><g class="sunburstlayer"/><g class="glimages"/><defs id="topdefs-4df2fc"><g class="clips"/></defs><g class="layer-above"><g class="imagelayer"/><g class="shapelayer"/></g><g class="infolayer"><g class="g-gtitle"/><g class="annotation" data-index="0" style="opacity: 1;"><g class="annotation-text-g" transform="rotate(0,175,175)"><g class="cursor-pointer" transform="translate(46,143)"><rect class="bg" x="0.5" y="0.5" width="258" height="63" style="stroke-width: 1px; stroke: rgb(0, 0, 0); stroke-opacity: 0; fill: rgb(0, 0, 0); fill-opacity: 0;"/><text class="annotation-text" text-anchor="middle" x="129.6875" y="52" style="font-family: 'Open Sans', verdana, arial, sans-serif; font-size: 50px; fill: rgb(42, 63, 95); fill-opacity: 1; white-space: pre;">Onondaga</text></g></g></g></g></svg>