<svg class="main-svg" xmlns="http://www.w3.org/2000/svg" xmlns:xlink="http://www.w3.org/1999/xlink" width="350" height="350" style="" viewBox="0 0 350 350"><rect x="0" y="0" width="350" height="350" style="fill: rgb(0, 0, 0); fill-opacity: 0;"/><defs id="defs-60a5a8"><g class="clips"/><g class="gradients"/><g class="patterns"/></defs><g class="bglayer"/><g class="layer-below"><g class="imagelayer"/><g class="shapelayer"/></g><g class="cartesianlayer"/><g class="polarlayer"/><g class="smithlayer"/><g class="ternarylayer"/><g class="geolayer"/><g class="funnelarealayer"/><g class="pielayer"><g class="trace" stroke-linejoin="round" style="opacity: 1;"><g class="slice"><path class="surface" d="M139.52312716026285,235.34394330430456a70,70 0 1 0 35.47687283973714,-130.34394330430456l0,-105a175,175 0 1 1 -88.69218209934284,325.85985826076137Z" style="pointer-events: all; stroke-width: 0; fill: rgb(70, 130, 180); fill-opacity: 1; stroke: rgb(68, 68, 68); stroke-opacity: 1;"/></g><g class="slice"><path class="surface" d="M175,105a70,70 0 0 0 -37.79519099854488,128.91963626316368l-56.69278649781732,88.37945439474551a175,175 0 0 1 94.4879774963622,-322.2990906579092Z" style="pointer-events: all; stroke-width: 0; fill: rgb(139, 69, 19); fill-opacity: 1; stroke: rgb(68, 68, 68); stroke-opacity: 1;"/></g><g class="slice"><path class="surface" d="M137.20480900145512,233.91963626316368a70,70 0 0 0 2.3183181588077617,1.424307041140878l-53.21530925960568,90.51591495645683a175,175 0 0 1 -5.795795397019404,-3.560767602852195Z" style="pointer-events: all; stroke-width: 0; fill: rgb(208, 32, 144); fill-opacity: 1; stroke: rgb(68, 68, 68); stroke-opacity: 1;"/></g></g></g><g class="iciclelayer"/><g class="treemaplayer"/><g class="sunburstlayer"/><g class="glimages"/><defs id="topdefs-60a5a8"><g class="clips"/></defs><g class="layer-above"><g class="imagelayer"/><g class="shapelayer"/></g><g class="infolayer"><g class="g-gtitle"/><g class="annotation" data-index="0" style="opacity: 1;"><g class="annotation-text-g" transform="rotate(0,175,175)"><g class="cursor-pointer" transform="translate(79,143)"><rect class="bg" x="0.5" y="0.5" width="191" height="63" style="stroke-width: 1px; stroke: rgb(0, 0, 0); stroke-opacity: 0; fill: rgb(0, 0, 0); fill-opacity: 0;"/><text class="annotation-text" text-anchor="middle" x="96.140625" y="52" style="font-family: 'Open Sans', verdana, arial, sans-serif; font-size: 50px; fill: rgb(42, 63, 95); fill-opacity: 1; white-space: pre;">Queens</text></g></g></g></g></svg>